<!-- ig.svg -->
<svg xmlns="http://www.w3.org/2000/svg" viewBox="0 0 448 512" fill="#E1306C">
  <path d="M224 202.66A53.34 53.34 0 1 0 277.34 256 53.38 53.38 0 0 0 224 202.66Zm124.71-41a54 54 0 0 0-30.35-30.35C298.26 124 224 124 224 124s-74.26 0-94.36 7.31a54 54 0 0 0-30.35 30.35C92 144.74 92 224 92 224s0 79.26 7.31 99.36a54 54 0 0 0 30.35 30.35C149.74 356 224 356 224 356s74.26 0 94.36-7.31a54 54 0 0 0 30.35-30.35C356 303.26 356 224 356 224s0-79.26-7.29-99.34zM224 338a114 114 0 1 1 114-114 114.13 114.13 0 0 1-114 114zm146.4-118.6a34.6 34.6 0 1 1 34.6-34.6 34.6 34.6 0 0 1-34.6 34.6z"/>
</svg>