<!-- tiktok.svg -->
<svg xmlns="http://www.w3.org/2000/svg" viewBox="0 0 448 512" fill="#010101">
  <path d="M448,209.8v125.1c0,36.9-3.8,69.3-11.5,97.3c-7.6,28-20.1,51.6-37.4,70.8c-17.3,19.1-40.2,34-68.8,44.7C297.7,560.1,264,568,224,568c-43.5,0-81.3-8.4-113.3-25.3c-32-16.9-56.6-40.6-73.8-71.1c-17.2-30.5-25.8-66.7-25.8-108.7c0-47.1,10.5-86.3,31.6-117.6c21.1-31.2,49.8-55.2,85.9-71.9c36.1-16.7,76.7-25,121.6-25c5.7,0,10.6,0,14.7,0.1c4.1,0.1,8.2,0.3,12.3,0.6v82.2h-19.8c-41.6,0-74.5,13.1-98.6,39.2c-24.1,26.1-36.2,61.7-36.2,106.9c0,46.1,11.6,82.6,34.8,109.4c23.2,26.8,55.6,40.2,97.2,40.2c25.3,0,47.2-4.7,65.6-14c18.4-9.4,31.4-21.7,39-36.9c7.6-15.3,11.3-32.9,11.3-52.9V209.8H448z"/>
</svg>